<svg id="Capa_1" data-name="Capa 1" xmlns="http://www.w3.org/2000/svg" xmlns:xlink="http://www.w3.org/1999/xlink" viewBox="0 0 66 66"><defs><style>.cls-1{fill:url(#radial-gradient);}.cls-2{fill:url(#linear-gradient);}.cls-3{fill:#fdfdff;}.cls-4{fill:#00a1b1;}.cls-4,.cls-5{fill-rule:evenodd;}.cls-5{fill:#e58068;}</style><radialGradient id="radial-gradient" cx="21.78" cy="-15585.76" r="57.64" gradientTransform="matrix(1, 0, 0, -1, 0, -15570)" gradientUnits="userSpaceOnUse"><stop offset="0" stop-color="#fff"/><stop offset="0.6" stop-color="#e3e9ee"/><stop offset="1" stop-color="#a0a7af"/></radialGradient><linearGradient id="linear-gradient" x1="280.18" y1="47.98" x2="337.63" y2="47.98" gradientTransform="translate(-275.92 -14.98)" gradientUnits="userSpaceOnUse"><stop offset="0" stop-color="#edeff2"/><stop offset="1" stop-color="#fff"/></linearGradient></defs><title>Mesa de trabajo 2</title><g id="_Grupo_" data-name="&lt;Grupo&gt;"><g id="_Grupo_2" data-name="&lt;Grupo&gt;"><g id="_Grupo_3" data-name="&lt;Grupo&gt;"><path id="_Trazado_" data-name="&lt;Trazado&gt;" class="cls-1" d="M64,33A31,31,0,1,1,33,2,31,31,0,0,1,64,33Z"/></g><g id="_Grupo_4" data-name="&lt;Grupo&gt;"><circle id="_Trazado_2" data-name="&lt;Trazado&gt;" class="cls-2" cx="33" cy="33" r="28.73" transform="translate(-2.9 62.82) rotate(-84.72)"/></g></g><g id="_Grupo_5" data-name="&lt;Grupo&gt;"><path id="_Trazado_compuesto_" data-name="&lt;Trazado compuesto&gt;" class="cls-3" d="M32.85,28.09c0,4.32,0,8.64,0,13a8.72,8.72,0,0,0,.21,1.85,1.07,1.07,0,0,0,1.1.89,1.37,1.37,0,0,0,1.28-.69,3.28,3.28,0,0,0,.3-1.82c0-3.58,0-7.16,0-10.75,0-.29-.17-.81.26-.83s.33.5.33.8q0,4.26,0,8.53a4.14,4.14,0,0,0,.31,2c.29.55.63,1.13,1.41,1a1.31,1.31,0,0,0,1.11-1.31,14.89,14.89,0,0,0,.06-1.7c0-2.84,0-5.69,0-8.53,0-.42-.14-1.05.54-1s.51.64.51,1.06c0,2.1,0,4.21,0,6.31,0,.92,0,2,1.24,2S42.9,37.74,43,36.79a12.18,12.18,0,0,0,0-1.36q0-3.33,0-6.65c0-.34,0-.82.39-.84s.36.47.37.79c0,1,0,1.93,0,2.9S43.76,34,45.32,34c1.41,0,1.41-1.18,1.41-2.26,0-3.69-.19-7.4,0-11.08.35-5.86-6.35-11-12.17-8.36a2.42,2.42,0,0,0-1.76,2.53C32.9,19.22,32.85,23.65,32.85,28.09Zm-1.3.45q0-6.48,0-13c0-1.2.11-2.74-1.55-2.67-1.49.07-1.33,1.58-1.33,2.7,0,3.35,0,6.7,0,10.06,0,.46.25,1.24-.44,1.24-.53,0-.29-.75-.3-1.15-.06-2.21-.09-4.43-.11-6.64,0-.91,0-1.82,0-2.73s-.47-1.78-1.45-1.78S25.1,15.5,25,16.33a9.3,9.3,0,0,0,0,1.19c0,2.5,0,5,0,7.5,0,.68.37,1.89-.39,1.91s-.46-1.2-.48-1.88c-.06-2,0-4-.09-6,0-.74-.37-1.49-1.35-1.43s-1.08.76-1.12,1.46c-.05,1.13,0,2.27,0,3.41,0,1.76,0,3.52,0,5.28,0,.44-.06,1-.67,1s-.34-.63-.35-1c0-1.08,0-2.16,0-3.24s-.13-2-1.36-2-1.38,1-1.38,2c0,3.86-.07,7.73,0,11.59a8.75,8.75,0,0,0,9.84,8.67c3.1-.31,4-1.31,4-4.35Q31.56,34.51,31.56,28.54Zm20.28-3.37c.22.26.52.45.73.72,1.84,2.4,3,5,1.9,8.07a15.16,15.16,0,0,1-5.53,7.11,36.15,36.15,0,0,1-18,6.66c-5.13.58-10.23.21-15-2.18-3.87-2-5.74-5.15-5.26-9a19.75,19.75,0,0,1,.56-2.31c.06-.26.28-.61,0-.74s-.43.28-.57.5A8,8,0,0,0,9.4,36.89c-.79,4.57.84,8.23,5.18,10.92a24.63,24.63,0,0,0,13.84,3.46A37.49,37.49,0,0,0,47,46a20.55,20.55,0,0,0,8.78-8.94c2.2-4.68.62-10.24-3.62-12.43-.25-.13-.48-.4-.73-.14"/><path id="_Trazado_3" data-name="&lt;Trazado&gt;" class="cls-4" d="M32.85,28.09c0-4.43.05-8.87,0-13.3a2.42,2.42,0,0,1,1.76-2.53c5.82-2.59,12.52,2.51,12.17,8.36-.22,3.68,0,7.39,0,11.08,0,1.08,0,2.23-1.41,2.26-1.56,0-1.5-1.23-1.51-2.33s0-1.93,0-2.9c0-.32.1-.81-.37-.79s-.39.5-.39.84q0,3.32,0,6.65a12.18,12.18,0,0,1,0,1.36c-.11.95-.09,2.11-1.46,2.07s-1.23-1.12-1.24-2c0-2.1,0-4.21,0-6.31,0-.41.16-1.05-.51-1.06s-.53.62-.54,1c0,2.84,0,5.69,0,8.53a14.89,14.89,0,0,1-.06,1.7A1.31,1.31,0,0,1,38.08,42c-.78.12-1.12-.46-1.41-1a4.14,4.14,0,0,1-.31-2q0-4.26,0-8.53c0-.3.13-.84-.33-.8s-.26.53-.26.83c0,3.58,0,7.16,0,10.75a3.28,3.28,0,0,1-.3,1.82,1.37,1.37,0,0,1-1.28.69,1.07,1.07,0,0,1-1.1-.89A8.72,8.72,0,0,1,32.86,41C32.84,36.73,32.85,32.41,32.85,28.09Z"/><path id="_Trazado_4" data-name="&lt;Trazado&gt;" class="cls-5" d="M31.56,28.54q0,6,0,11.93c0,3-.92,4-4,4.35a8.75,8.75,0,0,1-9.84-8.67c-.09-3.86,0-7.73,0-11.59,0-1,.19-1.94,1.38-2s1.35,1,1.36,2,0,2.16,0,3.24c0,.36-.08,1,.35,1,.61,0,.67-.53.67-1,0-1.76,0-3.52,0-5.28,0-1.14,0-2.27,0-3.41,0-.71.23-1.4,1.12-1.46s1.32.69,1.35,1.43c.09,2,0,4,.09,6,0,.68-.07,2.1.48,1.88s.37-1.23.39-1.91c.05-2.5,0-5,0-7.5a9.3,9.3,0,0,1,0-1.19c.11-.83.42-1.71,1.35-1.71s1.43.82,1.45,1.78,0,1.82,0,2.73c0,2.21.05,4.43.11,6.64,0,.41,0,1.16.3,1.15.59,0,.44-.79.44-1.24,0-3.35,0-6.71,0-10.06,0-1.13-.16-2.64,1.33-2.7,1.66-.07,1.55,1.47,1.55,2.67Q31.56,22.06,31.56,28.54Z"/><path id="_Trazado_5" data-name="&lt;Trazado&gt;" class="cls-4" d="M28.41,51.26A24.63,24.63,0,0,1,14.58,47.8c-4.34-2.69-6-6.34-5.18-10.92A8,8,0,0,1,10.66,34c.14-.22.24-.64.57-.5s.1.48,0,.74a19.75,19.75,0,0,0-.56,2.31c-.48,3.89,1.39,7.09,5.26,9,4.74,2.39,9.84,2.76,15,2.18a36.15,36.15,0,0,0,18-6.66A15.16,15.16,0,0,0,54.46,34c1.09-3.08-.06-5.67-1.9-8.07a8.13,8.13,0,0,0-.74-.87c-.19-.19-.42-.46-.37-.5.26-.25.51-.06.75.07,4.24,2.19,5.8,7.82,3.6,12.5A20.55,20.55,0,0,1,47,46,37.49,37.49,0,0,1,28.41,51.26Z"/></g></g></svg>