<svg id="Capa_1" data-name="Capa 1" xmlns="http://www.w3.org/2000/svg" xmlns:xlink="http://www.w3.org/1999/xlink" viewBox="0 0 66 66"><defs><style>.cls-1{fill:url(#radial-gradient);}.cls-2{fill:url(#linear-gradient);}.cls-3{fill:#f51a0d;}</style><radialGradient id="radial-gradient" cx="-39.81" cy="72.33" r="46.41" gradientTransform="translate(69.97 -37.25) scale(1.2 1.2)" gradientUnits="userSpaceOnUse"><stop offset="0" stop-color="#fff"/><stop offset="0.6" stop-color="#dadfdf"/><stop offset="1" stop-color="#8f9394"/></radialGradient><linearGradient id="linear-gradient" x1="35.99" y1="318.35" x2="91.6" y2="318.35" gradientTransform="matrix(1, 0, 0, 1, -31.18, -285.36)" gradientUnits="userSpaceOnUse"><stop offset="0" stop-color="#e6e7e7"/><stop offset="1" stop-color="#fff"/></linearGradient></defs><title>Mesa de trabajo 5</title><path class="cls-1" d="M63,33A30,30,0,1,1,33,3,30,30,0,0,1,63,33Z"/><ellipse class="cls-2" cx="32.61" cy="33" rx="27.8" ry="27.8" transform="translate(-3.25 62.44) rotate(-84.72)"/><path class="cls-3" d="M28.12,33c1.19-2.33,2.54-5,3.62-7.6l.43-1c-1.41-5.38-2.26-9.7-1.5-12.49a1.93,1.93,0,0,1,1.95-1.17h.65c1.23,0,1.81,1.55,1.88,2.16a9.77,9.77,0,0,1-.36,2.74,6.72,6.72,0,0,0-.41-2.79c-.51-1.12-1-1.79-1.43-1.9a1.38,1.38,0,0,0-.51,1,15.07,15.07,0,0,0-.2,2.4,26.86,26.86,0,0,0,1.1,7c.14-.4.26-.78.36-1.14.15-.57,1.1-4.32,1.1-4.32s-.24,5-.58,6.5c-.07.32-.15.63-.23,1a21.91,21.91,0,0,0,5.47,8.55,17.05,17.05,0,0,0,3.16,2.17,43.42,43.42,0,0,1,6.42-.48c2.43,0,4.22.39,4.94,1.11a1.88,1.88,0,0,1,.54,1.23,3.89,3.89,0,0,1-.1.72c0-.13,0-.77-1.93-1.39-1.54-.49-4.42-.48-7.88-.11,4,2,7.89,2.93,9.13,2.35a2.61,2.61,0,0,0,.67-.65A7,7,0,0,1,54,38.09a1.94,1.94,0,0,1-1,.66c-1.95.52-7-.68-11.44-3.21A93.5,93.5,0,0,0,26.93,39c-4.27,7.49-7.49,10.93-10.1,9.62l-1-.48A1.11,1.11,0,0,1,15.5,47c.31-1.49,2.18-3.74,5.93-6,.41-.25,2.21-1.2,2.21-1.2S22.3,41.08,22,41.33c-3,2.46-5.21,5.55-5.15,6.75v.1c2.55-.36,6.37-5.55,11.28-15.16m1.56.8c-.82,1.54-1.62,3-2.36,4.29A62.75,62.75,0,0,1,40,34.52c-.56-.39-1.11-.8-1.62-1.24a21.78,21.78,0,0,1-5.35-7,59.67,59.67,0,0,1-3.36,7.5"/></svg>