<?xml version="1.0" encoding="utf-8"?>
<!-- Generator: Adobe Illustrator 21.0.2, SVG Export Plug-In . SVG Version: 6.00 Build 0)  -->
<svg version="1.1" id="Capa_1" xmlns="http://www.w3.org/2000/svg" xmlns:xlink="http://www.w3.org/1999/xlink" x="0px" y="0px"
	 viewBox="0 0 55 55" style="enable-background:new 0 0 55 55;" xml:space="preserve">
<style type="text/css">
	.st0{fill:url(#_Trazado__1_);}
	.st1{fill:url(#_Trazado_2_1_);}
	.st2{fill:#FDFDFF;}
	.st3{fill:#00A1B1;}
	.st4{fill:#E58068;}
</style>
<title>Mesa de trabajo 2</title>
<g id="_Grupo_">
	<g id="_Grupo_2">
		<g id="_Grupo_3">
			
				<radialGradient id="_Trazado__1_" cx="18.4516" cy="16183.5967" r="46.4839" gradientTransform="matrix(1 0 0 1 0 -16170)" gradientUnits="userSpaceOnUse">
				<stop  offset="0" style="stop-color:#FFFFFF"/>
				<stop  offset="0.6" style="stop-color:#E3E9EE"/>
				<stop  offset="1" style="stop-color:#A0A7AF"/>
			</radialGradient>
			<path id="_Trazado_" class="st0" d="M52.5,27.5c0,13.8-11.2,25-25,25s-25-11.2-25-25s11.2-25,25-25S52.5,13.7,52.5,27.5z"/>
		</g>
		<g id="_Grupo_4">
			
				<linearGradient id="_Trazado_2_1_" gradientUnits="userSpaceOnUse" x1="-407.7385" y1="-207.9815" x2="-361.3998" y2="-207.9815" gradientTransform="matrix(9.202299e-02 -0.9958 -0.9958 -9.202299e-02 -144.2124 -374.5791)">
				<stop  offset="0" style="stop-color:#EDEFF2"/>
				<stop  offset="1" style="stop-color:#FFFFFF"/>
			</linearGradient>
			<circle id="_Trazado_2" class="st1" cx="27.5" cy="27.5" r="23.2"/>
		</g>
	</g>
	<g id="_Grupo_5">
		<path id="_Trazado_compuesto_" class="st2" d="M27.4,23.5c0,3.5,0,7,0,10.5c0,0.5,0.1,1,0.2,1.5c0.1,0.4,0.5,0.7,0.9,0.7
			c0.4,0,0.8-0.2,1-0.6c0.2-0.5,0.3-1,0.2-1.5c0-2.9,0-5.8,0-8.7c0-0.2-0.1-0.7,0.2-0.7c0.3,0,0.3,0.4,0.3,0.6c0,2.3,0,4.6,0,6.9
			c-0.1,0.6,0,1.1,0.2,1.6c0.2,0.4,0.5,0.9,1.1,0.8c0.5-0.1,0.9-0.5,0.9-1.1c0-0.5,0.1-0.9,0-1.4c0-2.3,0-4.6,0-6.9
			c0-0.3-0.1-0.8,0.4-0.8c0.5,0,0.4,0.5,0.4,0.9c0,1.7,0,3.4,0,5.1c0,0.7,0,1.6,1,1.6c1,0,1.1-0.9,1.2-1.7c0-0.4,0-0.7,0-1.1
			c0-1.8,0-3.6,0-5.4c0-0.3,0-0.7,0.3-0.7c0.3,0,0.3,0.4,0.3,0.6c0,0.8,0,1.6,0,2.3c0,0.8,0,1.9,1.3,1.9c1.1,0,1.1-1,1.1-1.8
			c0-3-0.2-6,0-8.9c0.3-4.7-5.1-8.9-9.8-6.7c-0.9,0.3-1.5,1.1-1.4,2C27.4,16.4,27.4,20,27.4,23.5z M26.3,23.9c0-3.5,0-7,0-10.5
			c0-1,0.1-2.2-1.2-2.2c-1.2,0.1-1.1,1.3-1.1,2.2c0,2.7,0,5.4,0,8.1c0,0.4,0.2,1-0.4,1c-0.4,0-0.2-0.6-0.2-0.9
			c0-1.8-0.1-3.6-0.1-5.4c0-0.7,0-1.5,0-2.2c0-0.7-0.4-1.4-1.2-1.4s-1,0.7-1.1,1.4c0,0.3,0,0.6,0,1c0,2,0,4,0,6
			c0,0.5,0.3,1.5-0.3,1.5c-0.6,0-0.4-1-0.4-1.5c0-1.6,0-3.2-0.1-4.8c0-0.6-0.3-1.2-1.1-1.2c-0.8,0-0.9,0.6-0.9,1.2
			c0,0.9,0,1.8,0,2.8c0,1.4,0,2.8,0,4.3c0,0.4,0,0.8-0.5,0.8s-0.3-0.5-0.3-0.8c0-0.9,0-1.7,0-2.6s-0.1-1.6-1.1-1.6s-1.1,0.8-1.1,1.6
			c0,3.1-0.1,6.2,0,9.3c0,3.9,3.2,7.1,7.1,7c0.3,0,0.6,0,0.9-0.1c2.5-0.2,3.2-1.1,3.2-3.5C26.4,30.3,26.3,27.1,26.3,23.9L26.3,23.9z
			 M42.7,21.2c0.2,0.2,0.4,0.4,0.6,0.6c1.5,1.9,2.4,4,1.5,6.5c-0.9,2.3-2.4,4.3-4.5,5.7c-4.3,3.1-9.3,4.9-14.5,5.4
			c-4.1,0.5-8.2,0.2-12.1-1.8c-3.1-1.6-4.6-4.2-4.2-7.3c0.1-0.6,0.3-1.3,0.5-1.9c0-0.2,0.2-0.5,0-0.6s-0.3,0.2-0.5,0.4
			c-0.5,0.7-0.8,1.5-1,2.3c-0.6,3.7,0.7,6.6,4.2,8.8c3.4,2,7.2,3,11.2,2.8c5.3-0.1,10.4-1.5,15-4.2c3.1-1.6,5.5-4.1,7.1-7.2
			c1.8-3.8,0.5-8.3-2.9-10c-0.2-0.1-0.4-0.3-0.6-0.1"/>
		<path id="_Trazado_3" class="st3" d="M27.4,23.5c0-3.6,0-7.2,0-10.7c-0.1-0.9,0.5-1.8,1.4-2c4.7-2.1,10.1,2,9.8,6.7
			c-0.2,3,0,6,0,8.9c0,0.9,0,1.8-1.1,1.8c-1.3,0-1.2-1-1.2-1.9s0-1.6,0-2.3c0-0.3,0.1-0.7-0.3-0.6c-0.4,0-0.3,0.4-0.3,0.7
			c0,1.8,0,3.6,0,5.4c0,0.4,0,0.7,0,1.1c-0.1,0.8-0.1,1.7-1.2,1.7c-1.1,0-1-0.9-1-1.6c0-1.7,0-3.4,0-5.1c0-0.3,0.1-0.8-0.4-0.9
			c-0.5,0-0.4,0.5-0.4,0.8c0,2.3,0,4.6,0,6.9c0,0.5,0,0.9,0,1.4c0,0.5-0.4,1-1,1c-0.6,0.1-0.9-0.4-1.1-0.8c-0.2-0.5-0.3-1.1-0.2-1.6
			c0-2.3,0-4.6,0-6.9c0-0.2,0.1-0.7-0.3-0.6c-0.4,0-0.2,0.4-0.2,0.7c0,2.9,0,5.8,0,8.7c0.1,0.5,0,1-0.2,1.5c-0.2,0.4-0.6,0.6-1,0.6
			c-0.4,0-0.8-0.3-0.9-0.7c-0.1-0.5-0.2-1-0.2-1.5C27.4,30.5,27.4,27,27.4,23.5z"/>
		<path id="_Trazado_4" class="st4" d="M26.3,23.9c0,3.2,0,6.4,0,9.6c0,2.4-0.7,3.2-3.2,3.5c-3.9,0.5-7.4-2.3-7.9-6.1
			c0-0.3-0.1-0.6-0.1-0.9c-0.1-3.1,0-6.2,0-9.3c0-0.8,0.2-1.6,1.1-1.6c1,0,1.1,0.8,1.1,1.6s0,1.7,0,2.6c0,0.3-0.1,0.8,0.3,0.8
			c0.5,0,0.5-0.4,0.5-0.8c0-1.4,0-2.8,0-4.3c0-0.9,0-1.8,0-2.8c0-0.6,0.2-1.1,0.9-1.2s1.1,0.6,1.1,1.2c0.1,1.6,0,3.2,0.1,4.8
			c0,0.5-0.1,1.7,0.4,1.5c0.4-0.2,0.3-1,0.3-1.5c0-2,0-4,0-6c0-0.3,0-0.6,0-1c0.1-0.7,0.3-1.4,1.1-1.4s1.2,0.7,1.2,1.4
			c0,0.8,0,1.5,0,2.2c0,1.8,0,3.6,0.1,5.4c0,0.3,0,0.9,0.2,0.9c0.5,0,0.4-0.6,0.4-1c0-2.7,0-5.4,0-8.1c0-0.9-0.1-2.1,1.1-2.2
			c1.3-0.1,1.2,1.2,1.2,2.2C26.3,16.9,26.3,20.4,26.3,23.9z"/>
		<path id="_Trazado_5" class="st3" d="M23.8,42.2c-3.9,0.2-7.8-0.8-11.2-2.8c-3.5-2.2-4.8-5.1-4.2-8.8c0.2-0.8,0.5-1.6,1-2.3
			c0.1-0.2,0.2-0.5,0.5-0.4c0.3,0.1,0.1,0.4,0,0.6c-0.2,0.6-0.3,1.2-0.5,1.9c-0.4,3.1,1.1,5.7,4.2,7.3c3.8,1.9,7.9,2.2,12.1,1.8
			c5.2-0.4,10.2-2.3,14.5-5.4c2-1.4,3.6-3.4,4.5-5.7c0.9-2.5,0-4.6-1.5-6.5c-0.2-0.2-0.4-0.5-0.6-0.7c-0.2-0.2-0.3-0.4-0.3-0.4
			c0.2-0.2,0.4,0,0.6,0.1c3.4,1.8,4.7,6.3,2.9,10.1c-1.6,3.1-4,5.6-7.1,7.2C34.2,40.7,29.1,42.1,23.8,42.2z"/>
	</g>
</g>
</svg>
