<svg id="Capa_1" data-name="Capa 1" xmlns="http://www.w3.org/2000/svg" xmlns:xlink="http://www.w3.org/1999/xlink" viewBox="0 0 66 66"><defs><style>.cls-1{fill:url(#radial-gradient);}.cls-2{fill:url(#linear-gradient);}.cls-3{fill:#59a4c1;}.cls-4{fill:#f8ce67;}.cls-5{fill:#f8e2bb;}.cls-6{fill:#4cb9d4;}.cls-7{fill:url(#linear-gradient-2);}</style><radialGradient id="radial-gradient" cx="22.14" cy="49.3" r="55.78" gradientTransform="translate(0 0.38)" gradientUnits="userSpaceOnUse"><stop offset="0" stop-color="#fff"/><stop offset="0.6" stop-color="#dadfdf"/><stop offset="1" stop-color="#8f9394"/></radialGradient><linearGradient id="linear-gradient" x1="120.38" y1="224.22" x2="175.99" y2="224.22" gradientTransform="matrix(1, 0, 0, 1, -115.19, -191.24)" gradientUnits="userSpaceOnUse"><stop offset="0" stop-color="#e6e7e7"/><stop offset="1" stop-color="#fff"/></linearGradient><linearGradient id="linear-gradient-2" x1="-219.59" y1="376.7" x2="-218.71" y2="370.37" gradientTransform="translate(199.5 -238.96) scale(0.69)" gradientUnits="userSpaceOnUse"><stop offset="0" stop-color="#d87b36"/><stop offset="0.54" stop-color="#e5854f"/><stop offset="1" stop-color="#ed8c60"/></linearGradient></defs><title>Mesa de trabajo 4</title><path class="cls-1" d="M63,33A30,30,0,1,1,33,3,30,30,0,0,1,63,33Z"/><ellipse class="cls-2" cx="33" cy="33" rx="27.8" ry="27.8" transform="translate(-2.9 62.82) rotate(-84.72)"/><path class="cls-3" d="M53.5,47.16a4.5,4.5,0,0,1-4.59,4.4H18.48a4.5,4.5,0,0,1-4.58-4.4V18.94a4.5,4.5,0,0,1,4.58-4.4H48.92a4.5,4.5,0,0,1,4.59,4.4Z"/><rect class="cls-4" x="15.64" y="23.06" width="35.89" height="6.78"/><path class="cls-5" d="M15.64,45.27a4.5,4.5,0,0,0,4.59,4.4H46.94a4.5,4.5,0,0,0,4.59-4.4V29.84H15.64Z"/><path class="cls-5" d="M38.21,21.22a1,1,0,0,1-1,.94H33.86a1,1,0,0,1-1-.94V18a1,1,0,0,1,1-.95h3.36a1,1,0,0,1,1,.95Z"/><path class="cls-6" d="M33.86,17.23a.77.77,0,0,0-.79.76v3.23a.77.77,0,0,0,.79.76h3.36a.77.77,0,0,0,.79-.76V18a.77.77,0,0,0-.79-.76Z"/><path class="cls-5" d="M44.45,21.22a1,1,0,0,1-1,.94H40.11a1,1,0,0,1-1-.94V18a1,1,0,0,1,1-.95h3.37a1,1,0,0,1,1,.95Z"/><path class="cls-6" d="M40.11,17.23a.77.77,0,0,0-.79.76v3.23a.77.77,0,0,0,.79.76h3.37a.77.77,0,0,0,.79-.76V18a.77.77,0,0,0-.79-.76Z"/><path class="cls-5" d="M50.7,21.22a1,1,0,0,1-1,.94H46.36a1,1,0,0,1-1-.94V18a1,1,0,0,1,1-.95h3.36a1,1,0,0,1,1,.95Z"/><path class="cls-7" d="M46.36,17.23a.77.77,0,0,0-.79.76v3.23a.77.77,0,0,0,.79.76h3.36a.77.77,0,0,0,.79-.76V18a.77.77,0,0,0-.79-.76Z"/><rect class="cls-5" x="33.9" y="20.47" width="2.41" height="0.81"/><rect class="cls-5" x="40.05" y="18.13" width="3.44" height="3.09"/><rect class="cls-6" x="40.23" y="18.9" width="3.07" height="2.13"/><path class="cls-5" d="M47.31,21.07a.54.54,0,0,1-.75,0h0a.49.49,0,0,1,0-.72l2.31-2.22a.55.55,0,0,1,.75,0h0a.49.49,0,0,1,0,.72Z"/><path class="cls-5" d="M46.57,18.85a.49.49,0,0,1,0-.72h0a.55.55,0,0,1,.75,0l2.31,2.22a.49.49,0,0,1,0,.72h0a.54.54,0,0,1-.75,0Z"/></svg>