<svg id="Capa_1" data-name="Capa 1" xmlns="http://www.w3.org/2000/svg" xmlns:xlink="http://www.w3.org/1999/xlink" viewBox="0 0 66 66"><defs><style>.cls-1{fill:url(#radial-gradient);}.cls-2{fill:url(#linear-gradient);}.cls-3{fill:#2aa4ca;}</style><radialGradient id="radial-gradient" cx="22.14" cy="43.2" r="55.76" gradientTransform="translate(0 5.43) scale(1 1.04)" gradientUnits="userSpaceOnUse"><stop offset="0" stop-color="#fff"/><stop offset="0.6" stop-color="#dadfdf"/><stop offset="1" stop-color="#8f9394"/></radialGradient><linearGradient id="linear-gradient" x1="-50.27" y1="412.32" x2="7.43" y2="412.32" gradientTransform="matrix(0.09, -1, 1, 0.09, -375.62, -26.37)" gradientUnits="userSpaceOnUse"><stop offset="0" stop-color="#e6e7e7"/><stop offset="1" stop-color="#fff"/></linearGradient></defs><title>Mesa de trabajo 6</title><path class="cls-1" d="M63,32.9C63,50.1,49.57,64,33,64S3,50.1,3,32.9,17.64,2,34.21,2,63,15.7,63,32.9Z"/><path class="cls-2" d="M35.56,4.16C50.85,5.63,62.09,19.68,60.68,35.55s-15,27.55-30.24,26.08S3.91,46.11,5.32,30.24,20.27,2.7,35.56,4.16Z"/><path class="cls-3" d="M32.65,33.17c.89-2.21,1.77-4.42,2.6-6.53L35,26.52a39.44,39.44,0,0,1-4.4-2.58,44.67,44.67,0,0,0-3.14,6.29,46.65,46.65,0,0,0,4.63,2.67Z"/><path class="cls-3" d="M22.09,26a29.09,29.09,0,0,1,3.82-5.92,22.59,22.59,0,0,1-2.42-2.82,22.16,22.16,0,0,0-4.43,5.36A26.23,26.23,0,0,0,22.09,26Z"/><path class="cls-3" d="M33.65,33.64a44.68,44.68,0,0,0,4.76,1.86,45.21,45.21,0,0,0,2.2-6.7,38.06,38.06,0,0,1-4.36-1.7C35.42,29.23,34.54,31.44,33.65,33.64Z"/><path class="cls-3" d="M50.18,30.08a15.22,15.22,0,0,1-1.63.09h0c-.68,0-1.39,0-2.1-.12A30,30,0,0,1,44.75,37a24.35,24.35,0,0,0,3,.21c.52,0,1,0,1.5-.07A23.28,23.28,0,0,0,50.18,30.08Z"/><path class="cls-3" d="M50.38,37a10.73,10.73,0,0,0,1.91-.48c.2-.07.4-.15.58-.24a21.71,21.71,0,0,0,.31-3.65A22,22,0,0,0,53,29.47a10.63,10.63,0,0,1-1.7.46A24.3,24.3,0,0,1,50.38,37Z"/><path class="cls-3" d="M39.44,35.82a35.32,35.32,0,0,0,4.21,1,28.5,28.5,0,0,0,1.72-6.86,29.11,29.11,0,0,1-3.74-.82A46.54,46.54,0,0,1,39.44,35.82Z"/><path class="cls-3" d="M29.72,23.32a32.58,32.58,0,0,1-3-2.47,27.74,27.74,0,0,0-3.77,5.94,38.81,38.81,0,0,0,3.63,2.83A45.68,45.68,0,0,1,29.72,23.32Z"/><path class="cls-3" d="M22.87,16.35A13.54,13.54,0,0,1,22.1,15a20.58,20.58,0,0,0-4.89,4.58,14.93,14.93,0,0,0,1.16,2.12A23.24,23.24,0,0,1,22.87,16.35Z"/><path class="cls-3" d="M35.65,12.59l-.54-.42a20.35,20.35,0,0,0-4.58,1q.69.73,1.49,1.44A27.46,27.46,0,0,1,35.65,12.59Z"/><path class="cls-3" d="M46.29,21.73a20.7,20.7,0,0,0,2.29.31,22,22,0,0,0-2.3-4.33l-1-.28A30.06,30.06,0,0,1,46.29,21.73Z"/><path class="cls-3" d="M50.47,22.11A20.94,20.94,0,0,0,48.36,19a23.38,23.38,0,0,1,1.41,3.1Z"/><path class="cls-3" d="M35.52,17.26c.88.57,1.8,1.11,2.76,1.6l1.43-3.72c-.48-.25-.94-.51-1.4-.78C37.33,15.29,36.41,16.26,35.52,17.26Z"/><path class="cls-3" d="M29.47,12l.26.31c.57-.21,1.15-.4,1.74-.56A19.47,19.47,0,0,0,29.47,12Z"/><path class="cls-3" d="M41.88,20.47c.09-1.4.14-2.8.11-4.22-.44-.19-.87-.4-1.3-.6l-1.43,3.71C40.14,19.77,41,20.14,41.88,20.47Z"/><path class="cls-3" d="M34.6,16.66q1.31-1.49,2.76-2.88l-.66-.45a26.64,26.64,0,0,0-3.8,2C33.44,15.8,34,16.24,34.6,16.66Z"/><path class="cls-3" d="M42.92,20.83q1.12.37,2.21.64A28.83,28.83,0,0,0,44,17c-.31-.11-.62-.23-.92-.35C43.07,18.07,43,19.46,42.92,20.83Z"/><path class="cls-3" d="M33.81,17.58c-.68-.48-1.33-1-1.95-1.51A27.17,27.17,0,0,0,27.48,20a31.73,31.73,0,0,0,2.88,2.34A46.45,46.45,0,0,1,33.81,17.58Z"/><path class="cls-3" d="M28.17,12.24a19.63,19.63,0,0,0-5,2.07,12.67,12.67,0,0,0,.68,1.27,22.16,22.16,0,0,1,4.77-2.85C28.43,12.57,28.29,12.4,28.17,12.24Z"/><path class="cls-3" d="M52.75,28.26a21.33,21.33,0,0,0-1.67-5c-.29,0-.59,0-.89,0a24,24,0,0,1,1,5.39A8.69,8.69,0,0,0,52.75,28.26Z"/><path class="cls-3" d="M45.35,22.79c-.83-.18-1.67-.41-2.52-.68a49.33,49.33,0,0,1-.93,5.82,29.42,29.42,0,0,0,3.58.8A28.82,28.82,0,0,0,45.35,22.79Z"/><path class="cls-3" d="M35.51,25.41l.18.09c.77-2,1.49-3.82,2.14-5.48a35.06,35.06,0,0,1-3.12-1.83,45.06,45.06,0,0,0-3.46,4.73A38.44,38.44,0,0,0,35.51,25.41Z"/><path class="cls-3" d="M40.88,27.61a48.52,48.52,0,0,0,.91-5.87c-1-.36-2-.77-3-1.24C38.18,22.17,37.46,24,36.7,26A36.76,36.76,0,0,0,40.88,27.61Z"/><path class="cls-3" d="M46.56,28.85a18.76,18.76,0,0,0,2,.12,14.54,14.54,0,0,0,1.54-.09A22.84,22.84,0,0,0,49,23.3a20.85,20.85,0,0,1-2.58-.3A29.9,29.9,0,0,1,46.56,28.85Z"/><path class="cls-3" d="M26.69,19.19A28.26,28.26,0,0,1,31,15.32a23,23,0,0,1-1.67-1.68,21.08,21.08,0,0,0-4.91,2.89A21,21,0,0,0,26.69,19.19Z"/><path class="cls-3" d="M43,14.55c0,.27,0,.54,0,.81l.37.15C43.27,15.18,43.15,14.86,43,14.55Z"/><path class="cls-3" d="M44.63,15.57c.06.14.1.29.15.43l.29.09Z"/><path class="cls-3" d="M38.64,12.58l-.55.21.19.12Z"/><path class="cls-3" d="M40.15,14l.33-.87-.56-.21-.66.59Z"/><path class="cls-3" d="M41.94,14.89c0-.37,0-.74,0-1.11l-.41-.21-.35.93Z"/><path class="cls-3" d="M36.38,41.84a35.19,35.19,0,0,0,4.07,1A27.94,27.94,0,0,0,43.19,38a36.82,36.82,0,0,1-4.24-1A43.7,43.7,0,0,1,36.38,41.84Z"/><path class="cls-3" d="M16.42,20.64A21.15,21.15,0,0,0,14,25.35a15.08,15.08,0,0,0,1.56,2.8,23.74,23.74,0,0,1,2.1-5.35A17.54,17.54,0,0,1,16.42,20.64Z"/><path class="cls-3" d="M19.78,32.76a29.59,29.59,0,0,1,1.79-5.58,28.81,28.81,0,0,1-3.14-3.4,22.39,22.39,0,0,0-2,5.5A28.48,28.48,0,0,0,19.78,32.76Z"/><path class="cls-3" d="M44.28,38.13A29.26,29.26,0,0,1,41.65,43a24,24,0,0,0,3,.21,17.24,17.24,0,0,0,1.74-.09,22.13,22.13,0,0,0,2.4-4.74c-.35,0-.71,0-1.08,0A25.72,25.72,0,0,1,44.28,38.13Z"/><path class="cls-3" d="M26.1,30.78a41.55,41.55,0,0,1-3.69-2.84,28.48,28.48,0,0,0-1.68,5.63,40.68,40.68,0,0,0,3.69,2.7A45.39,45.39,0,0,1,26.1,30.78Z"/><path class="cls-3" d="M49.23,42.5a6.76,6.76,0,0,0,2-1.13l0,0a21.45,21.45,0,0,0,1.27-3.73,12.74,12.74,0,0,1-2.59.58,23.65,23.65,0,0,1-2.16,4.63A10.49,10.49,0,0,0,49.23,42.5Z"/><path class="cls-3" d="M31.57,34A47.41,47.41,0,0,1,27,31.39a43.63,43.63,0,0,0-1.65,5.49c1.16.72,2.38,1.41,3.65,2,.35.18.71.34,1.07.5.69-1.66,1.4-3.39,2.1-5.13Z"/><path class="cls-3" d="M31.09,39.91a44.75,44.75,0,0,0,4.22,1.62,42,42,0,0,0,2.59-4.89,45.87,45.87,0,0,1-4.71-1.86C32.49,36.52,31.78,38.24,31.09,39.91Z"/><path class="cls-3" d="M27.21,52.46c.3,0,.61.06.91.07l.07,0-.71-.27Z"/><path class="cls-3" d="M22.25,49.68l.09.24c.34.34.69.67,1,1l0,.06.06,0c0-.24,0-.47-.07-.71Z"/><path class="cls-3" d="M25.89,51.56l-.27.52.2.09.52-.41Z"/><path class="cls-3" d="M24.49,50.9c0,.24,0,.47.07.71l0,0,.28-.54Z"/><path class="cls-3" d="M32,47.78c1,.34,2,.62,2.94.86a27.33,27.33,0,0,0,2.27-2,27.58,27.58,0,0,0,2.42-2.75,37.49,37.49,0,0,1-3.93-1A41.41,41.41,0,0,1,32,47.78Z"/><path class="cls-3" d="M27.35,45.85c.71-1.61,1.48-3.4,2.27-5.29-.37-.17-.74-.34-1.11-.52-1.17-.59-2.31-1.23-3.39-1.89a43.56,43.56,0,0,0-.78,6.11c.79.46,1.61.91,2.45,1.33Z"/><path class="cls-3" d="M44.65,44.42a25.29,25.29,0,0,1-3.78-.3A28.44,28.44,0,0,1,38,47.45q-.79.78-1.64,1.49a25.37,25.37,0,0,0,3.54.46,21.32,21.32,0,0,0,3.71-2.91,21.61,21.61,0,0,0,1.87-2.11l-.8,0Z"/><path class="cls-3" d="M19.18,40.64c0-.54-.06-1.08-.06-1.62a30.13,30.13,0,0,1,.42-4.91,32.09,32.09,0,0,1-3.36-3.34,22.87,22.87,0,0,0,0,7A28.91,28.91,0,0,0,19.18,40.64Z"/><path class="cls-3" d="M44.32,47.31a22.8,22.8,0,0,1-2.48,2.11,11.39,11.39,0,0,0,3.23-.59,6.56,6.56,0,0,0,1.22-.59l0,.06a20.87,20.87,0,0,0,4-4.94c-.22.1-.45.21-.69.29a12.77,12.77,0,0,1-2.71.61A22.69,22.69,0,0,1,44.32,47.31Z"/><path class="cls-3" d="M20.5,34.91A29.18,29.18,0,0,0,20.2,39q0,1.27.12,2.53c.93.72,1.93,1.41,3,2.08a44.63,44.63,0,0,1,.83-6.09A43.36,43.36,0,0,1,20.5,34.91Z"/><path class="cls-3" d="M15.26,29.65A19.14,19.14,0,0,1,13.54,27a21.69,21.69,0,0,0-.73,5.3h.07l0,.11.09.31a13.15,13.15,0,0,0,1.93,3.54c-.06-.69-.1-1.4-.1-2.1A24,24,0,0,1,15.26,29.65Z"/><path class="cls-3" d="M30.62,41c-.79,1.89-1.56,3.68-2.27,5.29.85.39,1.7.74,2.56,1.05a40.1,40.1,0,0,0,3.72-4.8C33.29,42.14,32,41.62,30.62,41Z"/><path class="cls-3" d="M13,35.48a21.37,21.37,0,0,0,2.21,7l.07,0a21.33,21.33,0,0,0,1.91,2,23.48,23.48,0,0,1-2-6A19.7,19.7,0,0,1,13,35.48Z"/><path class="cls-3" d="M31.4,52.25l.34.09A20.68,20.68,0,0,0,38,50.46q-1.41-.19-2.9-.54A27.39,27.39,0,0,1,31.4,52.25Z"/><path class="cls-3" d="M26.43,50.47c.31.14.63.27.94.39.64-.57,1.28-1.18,2-1.92.2-.2.38-.4.58-.61-.71-.27-1.42-.58-2.13-.9C27.34,48.57,26.87,49.59,26.43,50.47Z"/><path class="cls-3" d="M23.2,46.57c0-.52,0-1,0-1.55-1-.58-1.87-1.19-2.74-1.81a28.35,28.35,0,0,0,1.1,4.67c.54.34,1.09.68,1.66,1C23.22,48.13,23.2,47.37,23.2,46.57Z"/><path class="cls-3" d="M31.11,48.75c-.32.34-.63.68-1,1-.56.55-1.09,1.06-1.63,1.56.44.17.89.32,1.33.47a26.2,26.2,0,0,0,3.84-2.22C32.83,49.34,32,49.06,31.11,48.75Z"/><path class="cls-3" d="M16.71,40a22.27,22.27,0,0,0,2.87,6.43l.61.44a29.77,29.77,0,0,1-.88-4.61A32.93,32.93,0,0,1,16.71,40Z"/><path class="cls-3" d="M36.88,53.08v.07a19.61,19.61,0,0,0,6.63-2.67,15.86,15.86,0,0,1-2.57.2c-.31,0-.63,0-.95,0a21.77,21.77,0,0,1-5.37,2.27A18.38,18.38,0,0,0,36.88,53.08Z"/><path class="cls-3" d="M26.27,46.7q-1-.51-2-1.06c0,.31,0,.62,0,.93,0,1,0,2,.09,2.9l.54.28.53.25c.43-.88.91-1.9,1.42-3Z"/></svg>